# xmcd
#
# Track frame offsets:
#	150
#	15669
#	30269
#	47525
#	62889
#
# Disc length: 993 seconds
#
# Revision: 1
# Processed by: cddbd v1.5.2PL0 Copyright (c) Steve Scherf et al.
# Submitted via: audiograbber 1.83.01
#
DISCID=3203df05
DTITLE=Nelson Colt - Where I Belong
DYEAR=2013
DGENRE=Country
TTITLE0=Fingers Crossed
TTITLE1=Right Where I Belong
TTITLE2=I've Tried
TTITLE3=Prediction
TTITLE4=Across the River
EXTD=
EXTT0=
EXTT1=
EXTT2=
EXTT3=
EXTT4=
PLAYORDER=
